PathFileType	4	(X/Y/Z)	 s04c0201.trc
DataRate	CameraRate	NumFrames	NumMarkers	Units	OrigDataRate	OrigDataStartFrame	OrigNumFrames
200	200	5	51	mm	200	1251	2000
Frame#	Time	racr			lacr			c7			jug			rlel			rdr			llel			ldr			s2			lic			ric			lasi			rasi			rpsi			lpsi			rgt			lgt			rth1			rth2			rth3			rth4			rlfc			rmfc			rsh1			rsh2			rsh3			rsh4			rlmal			rmmal			rcal			rtoe			rmt5			lth1			lth2			lth4			lth3			llfc			lmfc			lsh1			lsh2			lsh3			lsh4			llmal			lmmal			lcal			ltoe			lmt1			lmt5			SBIKE			LBIKE			RBIKE			
		X1	Y1	Z1	X2	Y2	Z2	X3	Y3	Z3	X4	Y4	Z4	X5	Y5	Z5	X6	Y6	Z6	X7	Y7	Z7	X8	Y8	Z8	X9	Y9	Z9	X10	Y10	Z10	X11	Y11	Z11	X12	Y12	Z12	X13	Y13	Z13	X14	Y14	Z14	X15	Y15	Z15	X16	Y16	Z16	X17	Y17	Z17	X18	Y18	Z18	X19	Y19	Z19	X20	Y20	Z20	X21	Y21	Z21	X22	Y22	Z22	X23	Y23	Z23	X24	Y24	Z24	X25	Y25	Z25	X26	Y26	Z26	X27	Y27	Z27	X28	Y28	Z28	X29	Y29	Z29	X30	Y30	Z30	X31	Y31	Z31	X32	Y32	Z32	X33	Y33	Z33	X34	Y34	Z34	X35	Y35	Z35	X36	Y36	Z36	X37	Y37	Z37	X38	Y38	Z38	X39	Y39	Z39	X40	Y40	Z40	X41	Y41	Z41	X42	Y42	Z42	X43	Y43	Z43	X44	Y44	Z44	X45	Y45	Z45	X46	Y46	Z46	X47	Y47	Z47	X48	Y48	Z48	X49	Y49	Z49	X50	Y50	Z50	X51	Y51	Z51	
1251	6.2550	486.695486	1369.175882	-98.420153	474.656349	1367.403884	-383.796167	464.166088	1437.223835	-244.948081	434.478483	1282.410691	-245.899052	436.820510	1082.479992	39.326690	669.736695	947.303737	-84.204828	471.845297	1131.469596	-556.493007	679.388422	953.410440	-459.082253	-80.674986	1180.038827	-301.913526	96.760940	1195.214290	-438.788293	43.106638	1210.708200	-120.989708	126.785968	1152.693977	-384.707132	100.350735	1171.003026	-158.105302	-62.814052	1228.690744	-258.861965	-52.106624	1227.138460	-332.887322	9.518312	1151.153377	-104.696971	61.820605	1090.988912	-463.586020	143.779086	1050.049551	-87.551865	227.644391	1021.418484	-94.169094	285.679812	959.347254	-97.180393	245.924887	1051.818000	-107.454346	392.259019	863.935953	-117.605792	379.974408	840.327921	-230.328666	343.308240	730.891414	-93.463597	345.568544	656.134439	-107.297305	296.626519	585.468361	-114.059404	378.878925	650.316068	-128.483968	260.466517	438.573439	-119.548428	281.060049	449.308043	-204.561271	195.010567	396.180284	-158.574236	492.949625	424.069360	-143.013113	430.749964	389.153733	-87.998647	123.489309	1020.295017	-466.302532	198.321867	976.563938	-462.048448	221.600781	1000.187228	-447.980752	243.063965	899.506820	-464.682214	316.536289	761.814982	-440.976254	334.867203	733.104748	-329.200791	261.034121	654.320434	-464.210364	223.633457	578.946536	-441.543015	152.056746	526.151445	-442.342485	245.119098	565.639243	-411.230669	53.960254	412.397805	-438.475209	52.388257	411.380064	-348.630353	-22.658898	436.435945	-396.697113	204.176035	231.587850	-405.969712	NaN	NaN	NaN	126.676450	253.051543	-465.103093	-178.632282	939.024606	-278.960846	-4.121323	85.657520	-483.863251	-15.816846	80.373650	-83.240108	
1252	6.2600	486.768297	1369.697069	-99.119045	473.706536	1367.799613	-384.378810	463.495775	1437.531363	-245.503991	434.656784	1282.575908	-246.328550	437.354034	1082.733896	39.171234	670.318949	947.263723	-84.084446	470.657147	1131.532771	-556.212585	678.652382	953.427611	-459.289891	-80.411745	1177.634679	-301.532841	97.189545	1193.848685	-438.501413	43.632290	1208.367789	-119.858813	127.726663	1151.915109	-384.239735	101.341943	1169.875880	-157.527727	-63.191176	1226.112849	-257.482860	-52.184820	1224.485635	-332.603001	9.992518	1146.882043	-104.044757	63.990333	1089.828853	-462.853210	143.379516	1044.491178	-86.960659	226.435909	1014.553397	-92.981835	283.496993	951.346403	-96.913225	245.016696	1044.128636	-106.572457	389.082101	855.601210	-117.185679	376.863919	832.300215	-230.155348	338.299727	718.139960	-92.937663	344.228512	646.784620	-106.829032	296.406180	575.485631	-113.327078	378.301980	641.523233	-127.106353	262.945063	427.091486	-118.723728	283.580308	439.520730	-202.841167	197.839154	384.606870	-157.594119	495.719906	413.853636	-143.233353	433.799307	378.517074	-88.036751	125.978593	1021.128845	-465.297912	201.431040	978.339091	-461.598743	224.548823	1002.272659	-447.719202	246.980410	901.777321	-464.267965	322.805705	765.964279	-439.212688	340.357510	736.667606	-327.711623	265.553540	660.241312	-463.557805	226.441377	585.522040	-440.907878	153.731305	534.363306	-441.804060	247.690948	571.821519	-410.786971	53.450642	422.889339	-438.364413	51.973658	421.949023	-348.977226	-22.970639	448.255322	-396.715045	200.941002	240.186626	-405.875788	NaN	NaN	NaN	123.777594	262.672786	-465.105879	-178.696473	939.005300	-279.028130	-4.139095	85.630238	-483.857682	-15.831829	80.387358	-83.250421	
1253	6.2650	486.881311	1370.059576	-99.640961	474.404740	1368.765812	-386.442933	462.743816	1437.827833	-246.036184	434.766055	1282.666330	-246.706840	437.994698	1082.924699	39.071197	671.213042	947.346971	-83.845190	469.509930	1131.703086	-556.343845	677.991063	953.387570	-459.438599	-80.144048	1175.251086	-301.106932	97.577365	1192.642344	-438.386366	44.228512	1206.182815	-118.925804	128.659450	1151.216081	-384.035124	102.275668	1168.578985	-156.971583	-63.386578	1223.378712	-256.313816	-52.291865	1222.272751	-331.938846	10.461972	1143.267754	-103.564428	65.960852	1088.756867	-462.416019	142.807565	1039.890951	-85.955363	225.105847	1008.438418	-91.808601	281.124265	944.215455	-96.455449	244.337026	1037.764478	-105.136687	386.020411	847.279431	-116.691378	373.547785	823.887238	-229.656055	332.855878	705.820673	-92.396386	342.956762	637.692558	-105.866734	295.701524	565.978250	-112.583907	376.316882	632.120051	-126.472747	265.151168	416.094722	-117.762219	286.258399	428.514739	-202.392031	200.148869	373.718139	-156.418416	498.210263	403.107300	-143.702236	436.489672	367.716353	-88.176009	128.146558	1021.695088	-464.931502	204.020968	979.643028	-461.211875	226.940155	1003.839540	-447.407478	250.310187	903.577239	-463.911881	328.990962	770.076356	-438.273268	345.519969	740.143917	-326.491628	269.713159	665.931002	-462.842622	229.025670	592.197380	-440.220010	155.291823	542.459995	-441.235438	249.999253	577.729385	-410.123875	53.149834	433.225361	-438.267944	52.237961	432.247325	-349.608334	-23.172154	459.855979	-396.813653	198.336453	249.548405	-405.831686	NaN	NaN	NaN	121.421883	272.644576	-465.115215	-178.857404	938.935087	-278.561231	-4.145408	85.572382	-483.842941	-15.835454	80.368489	-83.265248	
1254	6.2700	487.023564	1370.327301	-100.034892	473.816863	1369.025584	-387.139497	461.944794	1437.930237	-246.430067	434.894574	1282.934279	-247.117396	438.830022	1082.966355	39.016633	672.181947	947.506605	-83.598784	468.501314	1131.611276	-556.536253	677.384646	953.231623	-459.580446	-79.858559	1173.075078	-300.628008	97.669844	1191.464580	-438.030502	44.935101	1204.222325	-118.016260	129.286816	1150.477797	-383.645225	103.292358	1167.436939	-156.386707	-63.432749	1221.033171	-255.404769	-52.644582	1219.753012	-331.169968	11.093599	1140.139605	-103.197598	67.759617	1087.669749	-462.009851	142.037672	1035.558337	-84.696211	223.985266	1002.936770	-91.018651	278.829351	938.086098	-95.688767	243.738747	1031.970973	-104.193156	382.968187	839.127667	-116.171072	370.196788	815.433857	-229.023405	327.014046	693.937744	-91.841436	341.983875	628.705485	-104.831969	295.292447	556.610598	-111.630622	374.945109	623.468335	-125.555939	266.922650	405.776221	-116.700523	287.098444	417.513196	-202.123188	202.010550	363.416794	-155.022503	500.337181	392.004456	-144.337969	438.677320	356.858070	-88.311199	129.906488	1021.779635	-464.947068	206.142877	980.458928	-460.826269	228.761365	1004.931641	-447.026911	253.330886	904.992376	-463.225853	334.567287	773.882695	-437.106085	350.604961	743.361029	-325.611185	273.655720	671.600362	-462.164305	231.501708	598.602240	-439.444563	156.810075	550.293417	-440.629931	252.190391	583.545929	-409.904462	52.988162	443.562192	-438.081457	51.038615	442.801099	-349.624695	-23.334168	471.313984	-396.751301	196.389773	259.300618	-405.670045	NaN	NaN	NaN	119.720411	282.856900	-465.101225	-178.767782	939.037810	-278.902976	-4.158281	85.545833	-483.839440	-15.835560	80.352334	-83.247116	
1255	6.2750	487.218421	1370.581530	-100.439326	473.517284	1369.085605	-387.917519	461.186128	1438.325441	-246.942471	435.014431	1283.207262	-247.521047	439.643277	1082.930074	38.965962	673.264970	947.676385	-83.260593	467.702973	1131.524228	-557.110506	676.906994	952.965999	-459.723074	-79.480423	1171.170380	-300.284722	97.675655	1190.610420	-437.835076	45.659907	1202.657158	-116.966778	130.016229	1150.145750	-383.474941	103.588791	1166.850842	-156.881699	-65.573273	1220.401520	-252.368974	-52.607323	1217.374987	-330.348616	11.792094	1137.576964	-102.849654	69.231463	1086.579892	-461.552996	141.309542	1031.047777	-83.699096	222.928905	997.878883	-90.467042	276.782773	932.087578	-95.050115	243.095850	1026.545518	-103.477789	379.740677	831.132151	-115.672290	366.514363	807.122316	-228.539780	320.811580	682.495359	-91.274479	341.201750	619.627080	-103.922178	295.424882	547.127571	-110.702514	374.173032	614.613279	-125.072668	268.323567	395.894152	-115.685879	288.131045	407.596429	-200.997974	203.414081	353.566599	-153.640292	502.005824	380.678113	-144.834074	440.565732	345.813716	-88.642696	131.313112	1021.544742	-465.029041	207.882560	981.018627	-460.444793	230.197415	1005.688459	-446.644925	255.923137	906.098765	-463.003610	339.768412	777.659113	-436.107568	355.579541	746.731291	-324.933238	277.448531	676.976514	-461.147575	234.023525	604.952618	-438.664515	158.403191	558.025670	-440.171949	254.217859	589.546886	-408.954181	52.984416	453.669084	-437.680894	49.500908	452.880721	-349.479305	-23.313240	482.379908	-396.556069	195.155715	269.362646	-405.367745	NaN	NaN	NaN	118.670673	293.212198	-465.131167	-178.809380	938.992162	-279.051652	-4.145270	85.517162	-483.860118	-15.834777	80.339163	-83.267636	
